<?xml version="1.0" standalone="no"?>
<!DOCTYPE svg PUBLIC "-//W3C//DTD SVG 20010904//EN"
 "http://www.w3.org/TR/2001/REC-SVG-20010904/DTD/svg10.dtd">
<svg version="1.0" xmlns="http://www.w3.org/2000/svg"
 width="512.000000pt" height="512.000000pt" viewBox="0 0 512.000000 512.000000"
 preserveAspectRatio="xMidYMid meet">

<g transform="translate(0.000000,512.000000) scale(0.100000,-0.100000)"
fill="#000000" stroke="none">
<path d="M1538 5086 c-436 -38 -455 -42 -506 -119 -26 -39 -27 -46 -25 -159 0
-65 -1 -118 -3 -118 -16 0 -616 -133 -639 -142 -72 -27 -114 -79 -129 -158 -7
-42 213 -1161 238 -1207 39 -72 93 -106 171 -106 65 -1 120 26 156 76 52 71
51 84 -50 585 -50 252 -91 462 -91 468 0 10 396 101 404 93 2 -2 34 -229 71
-504 36 -275 71 -518 78 -540 15 -53 75 -111 128 -125 111 -30 225 39 245 149
5 24 -23 265 -83 716 -50 374 -90 681 -88 683 6 6 376 34 381 29 3 -3 68 -473
144 -1044 76 -571 143 -1051 149 -1067 33 -83 100 -129 190 -128 59 0 115 31
155 85 39 53 34 113 -78 954 -58 436 -106 799 -106 808 0 13 37 15 310 15 273
0 310 -2 310 -15 0 -9 -47 -370 -105 -803 -58 -432 -105 -812 -105 -843 0
-112 56 -180 163 -200 92 -16 184 46 211 143 8 29 74 501 146 1048 72 547 133
1004 135 1016 5 21 5 21 190 -11 102 -18 188 -35 191 -38 3 -2 -33 -293 -80
-645 -48 -353 -86 -656 -86 -674 0 -41 30 -106 61 -135 31 -28 90 -53 126 -53
84 0 173 63 192 137 5 21 29 177 51 348 23 170 42 310 43 311 4 4 400 -65 405
-70 2 -3 -25 -115 -62 -248 -83 -303 -85 -340 -21 -416 39 -47 81 -65 146 -65
82 1 145 42 175 112 32 76 204 731 204 777 0 66 -31 125 -83 160 -37 25 -78
34 -377 84 l-335 56 3 30 c2 16 14 110 28 209 27 205 30 282 10 328 -16 41
-74 92 -118 105 -18 6 -214 41 -435 78 -378 63 -405 67 -444 54 -98 -33 -133
-91 -156 -260 l-16 -120 -367 0 -367 0 -13 98 c-16 129 -27 171 -56 209 -35
46 -83 72 -145 77 -30 3 -228 -10 -441 -28z"/>
<path d="M535 2941 c-83 -28 -127 -84 -133 -169 -3 -52 30 -165 363 -1247 201
-655 382 -1241 401 -1303 27 -87 44 -123 70 -152 68 -76 -23 -71 1339 -68
1126 3 1222 4 1251 20 60 33 91 81 128 200 432 1392 766 2498 766 2536 0 62
-32 124 -82 158 l-41 29 -461 0 c-449 0 -462 -1 -493 -21 -45 -28 -70 -63
-100 -136 -85 -212 -264 -408 -460 -507 -152 -76 -317 -111 -523 -111 -262 0
-468 59 -646 185 -131 93 -276 277 -333 423 -37 92 -73 135 -135 159 -34 13
-874 17 -911 4z"/>
</g>
</svg>
